<?xml version="1.0" standalone="no"?>
<!DOCTYPE svg PUBLIC "-//W3C//DTD SVG 20010904//EN"
 "http://www.w3.org/TR/2001/REC-SVG-20010904/DTD/svg10.dtd">
<svg version="1.0" xmlns="http://www.w3.org/2000/svg"
 width="400.000000pt" height="400.000000pt" viewBox="0 0 400.000000 400.000000"
 preserveAspectRatio="xMidYMid meet">

<g transform="translate(0.000000,400.000000) scale(0.100000,-0.100000)"
fill="#000000" stroke="none">
<path d="M1881 2924 c-186 -50 -338 -220 -371 -416 -23 -130 17 -291 97 -396
22 -29 27 -32 40 -20 12 13 9 22 -21 66 -99 148 -111 335 -30 494 61 120 204
224 343 250 38 7 61 16 61 25 0 17 -49 16 -119 -3z"/>
<path d="M2110 2918 c0 -9 17 -20 43 -28 112 -33 224 -120 279 -217 20 -35 34
-50 44 -46 8 3 14 10 14 17 0 20 -68 114 -118 161 -77 75 -262 155 -262 113z"/>
<path d="M2426 2177 c-82 -130 -244 -226 -378 -227 -31 0 -38 -4 -38 -20 0
-42 147 -19 263 42 63 34 168 139 204 205 23 40 23 41 3 46 -16 4 -27 -6 -54
-46z"/>
<path d="M1044 1620 c-95 -19 -178 -75 -228 -153 -44 -70 -58 -115 -58 -195 0
-137 80 -261 204 -318 53 -24 76 -28 143 -28 87 0 143 18 210 70 28 21 33 29
24 40 -16 19 -33 17 -53 -5 -51 -56 -200 -80 -282 -46 -132 54 -218 193 -200
321 15 115 104 225 207 259 94 32 216 7 285 -56 20 -19 21 -19 38 0 16 18 15
20 -36 53 -81 54 -172 74 -254 58z"/>
<path d="M1460 1280 c0 -343 0 -350 20 -350 20 0 20 7 20 350 0 343 0 350 -20
350 -20 0 -20 -7 -20 -350z"/>
<path d="M2237 1623 c-4 -3 -7 -161 -7 -350 l0 -343 25 0 c23 0 25 3 25 51 l0
51 39 -39 c121 -125 316 -76 377 94 18 51 17 150 -1 204 -57 167 -253 219
-374 98 l-41 -41 0 141 c0 130 -1 141 -18 141 -10 0 -22 -3 -25 -7z m306 -227
c136 -58 162 -280 44 -383 -51 -45 -105 -60 -159 -44 -170 50 -200 316 -49
418 40 27 113 31 164 9z"/>
<path d="M3150 1358 c0 -241 -2 -265 -20 -302 -53 -108 -193 -120 -283 -23
-26 28 -29 29 -44 14 -16 -15 -15 -18 8 -43 38 -41 103 -74 157 -81 87 -10
162 30 205 111 21 39 22 55 25 314 l3 272 -25 0 -26 0 0 -262z"/>
<path d="M1660 1258 c0 -243 14 -281 113 -323 71 -29 156 -13 212 42 l35 34 0
-41 c0 -36 2 -40 25 -40 l25 0 -2 258 c-3 256 -3 257 -25 260 -22 3 -22 2 -25
-192 -3 -223 -7 -232 -91 -275 -63 -31 -124 -23 -174 22 -46 43 -52 79 -53
280 0 160 -1 167 -20 167 -19 0 -20 -7 -20 -192z"/>
</g>
</svg>
